<svg width="500" height="500" viewBox="0 0 500 500" fill="none" xmlns="http://www.w3.org/2000/svg">
<circle cx="250" cy="250" r="248" fill="#1E1E1E"/>
<path d="M352.716 230.015C356.182 229.985 359.788 230.687 363.534 232.121C367.28 233.556 370.897 235.457 374.384 237.827L374.184 237.829C377.672 240.199 380.367 243.442 382.269 247.559C384.172 251.676 385.146 256.401 385.193 261.734L385.431 289.133C385.525 299.933 381.996 308.03 374.842 313.426C371.398 315.989 367.815 318.021 364.095 319.52C360.507 320.884 356.979 321.582 353.513 321.612L309.914 321.991C306.448 322.022 302.842 321.386 299.097 320.086C295.485 318.65 291.934 316.681 288.446 314.178C281.199 308.908 277.529 300.872 277.435 290.073L277.32 276.873C277.266 270.607 281.172 267.44 289.038 267.371C297.038 267.301 301.065 270.4 301.12 276.666L301.221 288.266C301.251 291.732 302.278 294.857 304.302 297.639C306.327 300.422 309.805 301.792 314.738 301.749L348.337 301.456C353.27 301.413 356.725 299.983 358.7 297.166C360.676 294.349 361.648 291.207 361.618 287.74L361.408 263.541C361.379 260.208 360.352 257.15 358.328 254.368C356.302 251.452 352.823 250.015 347.89 250.058L309.291 250.394C302.358 250.454 295.203 247.983 287.826 242.981C280.577 237.444 276.907 229.409 276.816 218.876L276.609 195.076C276.562 189.743 277.455 185.069 279.287 181.053C281.117 176.903 283.755 173.547 287.199 170.983L286.999 170.985C290.446 168.688 294.03 166.79 297.75 165.291C301.471 163.792 305.064 163.028 308.531 162.997L352.129 162.618C355.596 162.588 359.202 163.29 362.948 164.724C366.694 166.158 370.31 167.993 373.796 170.23L373.596 170.231C377.085 172.735 379.78 176.045 381.683 180.161C383.584 184.145 384.558 188.803 384.605 194.137L384.707 205.936C384.762 212.203 380.789 215.371 372.789 215.44C364.923 215.509 360.963 212.41 360.908 206.143L360.821 196.144C360.792 192.81 359.765 189.753 357.741 186.97C355.717 184.188 352.238 182.818 347.305 182.861L313.706 183.153C308.773 183.196 305.319 184.626 303.343 187.444C301.368 190.261 300.394 193.336 300.423 196.669L300.601 217.069C300.631 220.535 301.658 223.66 303.683 226.442C305.706 229.091 309.184 230.394 314.117 230.351L352.716 230.015Z" fill="white"/>
<path d="M235.6 162.704C239.867 162.704 244.533 163.704 249.6 165.704C254.267 167.571 256.6 171.104 256.6 176.304V314.104C256.6 320.504 252.667 323.704 244.8 323.704C236.933 323.704 233 320.504 233 314.104V211.304L227.2 210.704L219.2 236.704L195.2 316.704C193.733 321.371 190.133 323.637 184.4 323.504C181.867 323.371 179.667 322.704 177.8 321.504C175.933 320.304 174.667 318.571 174 316.304L159.6 269.704C156.667 260.504 153.733 251.171 150.8 241.704C147.867 232.104 144.667 221.504 141.2 209.904L135.4 210.704V314.104C135.4 320.504 131.467 323.704 123.6 323.704C115.733 323.704 111.8 320.504 111.8 314.104V176.304C111.8 171.237 114.133 167.704 118.8 165.704C123.733 163.704 128.467 162.771 133 162.904C135 162.904 137.067 163.171 139.2 163.704C141.333 164.237 143.333 165.037 145.2 166.104C147.067 167.037 148.733 168.304 150.2 169.904C151.667 171.371 152.8 173.104 153.6 175.104L185 282.104C187.267 274.237 189.667 265.704 192.2 256.504C194.733 247.304 197.333 237.971 200 228.504C202.667 219.037 205.267 209.704 207.8 200.504C210.467 191.171 212.933 182.504 215.2 174.504C216 172.637 217.133 170.971 218.6 169.504C220.067 168.037 221.733 166.837 223.6 165.904C225.467 164.837 227.4 164.037 229.4 163.504C231.533 162.971 233.6 162.704 235.6 162.704Z" fill="white"/>
</svg>
